<svg width="160" height="160" viewBox="0 0 160 160" fill="none" xmlns="http://www.w3.org/2000/svg">
<circle cx="80" cy="80" r="80" fill="url(#paint0_linear_3_15)"/>
<g filter="url(#filter0_d_3_15)">
<path d="M43.0455 104V57.4545H61.4091C64.9394 57.4545 67.947 58.1288 70.4318 59.4773C72.9167 60.8106 74.8106 62.6667 76.1136 65.0455C77.4318 67.4091 78.0909 70.1364 78.0909 73.2273C78.0909 76.3182 77.4242 79.0455 76.0909 81.4091C74.7576 83.7727 72.8258 85.6136 70.2955 86.9318C67.7803 88.25 64.7348 88.9091 61.1591 88.9091H49.4545V81.0227H59.5682C61.4621 81.0227 63.0227 80.697 64.25 80.0455C65.4924 79.3788 66.4167 78.4621 67.0227 77.2955C67.6439 76.1136 67.9545 74.7576 67.9545 73.2273C67.9545 71.6818 67.6439 70.3333 67.0227 69.1818C66.4167 68.0151 65.4924 67.1136 64.25 66.4773C63.0076 65.8258 61.4318 65.5 59.5227 65.5H52.8864V104H43.0455ZM84.483 104V57.4545H94.1648V74.9545H94.4602C94.8845 74.0152 95.4981 73.0606 96.3011 72.0909C97.1193 71.1061 98.1799 70.2879 99.483 69.6364C100.801 68.9697 102.438 68.6364 104.392 68.6364C106.938 68.6364 109.286 69.303 111.438 70.6364C113.589 71.9545 115.309 73.947 116.597 76.6136C117.884 79.2652 118.528 82.5909 118.528 86.5909C118.528 90.4848 117.9 93.7727 116.642 96.4545C115.4 99.1212 113.703 101.144 111.551 102.523C109.415 103.886 107.021 104.568 104.369 104.568C102.491 104.568 100.892 104.258 99.5739 103.636C98.2708 103.015 97.2027 102.235 96.3693 101.295C95.536 100.341 94.8996 99.3788 94.4602 98.4091H94.0284V104H84.483ZM93.9602 86.5455C93.9602 88.6212 94.2481 90.4318 94.8239 91.9773C95.3996 93.5227 96.233 94.7273 97.3239 95.5909C98.4148 96.4394 99.7405 96.8636 101.301 96.8636C102.877 96.8636 104.21 96.4318 105.301 95.5682C106.392 94.6894 107.218 93.4773 107.778 91.9318C108.354 90.3712 108.642 88.5758 108.642 86.5455C108.642 84.5303 108.362 82.7576 107.801 81.2273C107.241 79.697 106.415 78.5 105.324 77.6364C104.233 76.7727 102.892 76.3409 101.301 76.3409C99.7254 76.3409 98.392 76.7576 97.3011 77.5909C96.2254 78.4242 95.3996 79.6061 94.8239 81.1364C94.2481 82.6667 93.9602 84.4697 93.9602 86.5455Z" fill="white"/>
</g>
<defs>
<filter id="filter0_d_3_15" x="39.0455" y="57.4545" width="83.483" height="55.1136" filterUnits="userSpaceOnUse" color-interpolation-filters="sRGB">
<feFlood flood-opacity="0" result="BackgroundImageFix"/>
<feColorMatrix in="SourceAlpha" type="matrix" values="0 0 0 0 0 0 0 0 0 0 0 0 0 0 0 0 0 0 127 0" result="hardAlpha"/>
<feOffset dy="4"/>
<feGaussianBlur stdDeviation="2"/>
<feComposite in2="hardAlpha" operator="out"/>
<feColorMatrix type="matrix" values="0 0 0 0 0 0 0 0 0 0 0 0 0 0 0 0 0 0 0.25 0"/>
<feBlend mode="normal" in2="BackgroundImageFix" result="effect1_dropShadow_3_15"/>
<feBlend mode="normal" in="SourceGraphic" in2="effect1_dropShadow_3_15" result="shape"/>
</filter>
<linearGradient id="paint0_linear_3_15" x1="159.5" y1="80" x2="-12" y2="80" gradientUnits="userSpaceOnUse">
<stop stop-color="#356EFE"/>
<stop offset="1" stop-color="#002D68"/>
</linearGradient>
</defs>
</svg>
