<svg width="160" height="160" viewBox="0 0 160 160" fill="none" xmlns="http://www.w3.org/2000/svg">
<circle cx="80" cy="80" r="80" fill="url(#paint0_linear_3_16)"/>
<g filter="url(#filter0_d_3_16)">
<path d="M68.2955 70.8409C68.1136 69.0076 67.3333 67.5833 65.9545 66.5682C64.5758 65.553 62.7045 65.0455 60.3409 65.0455C58.7348 65.0455 57.3788 65.2727 56.2727 65.7273C55.1667 66.1667 54.3182 66.7803 53.7273 67.5682C53.1515 68.3561 52.8636 69.25 52.8636 70.25C52.8333 71.0833 53.0076 71.8106 53.3864 72.4318C53.7803 73.053 54.3182 73.5909 55 74.0455C55.6818 74.4848 56.4697 74.8712 57.3636 75.2045C58.2576 75.5227 59.2121 75.7955 60.2273 76.0227L64.4091 77.0227C66.4394 77.4773 68.303 78.0833 70 78.8409C71.697 79.5985 73.1667 80.5303 74.4091 81.6364C75.6515 82.7424 76.6136 84.0455 77.2955 85.5455C77.9924 87.0455 78.3485 88.7652 78.3636 90.7045C78.3485 93.553 77.6212 96.0227 76.1818 98.1136C74.7576 100.189 72.697 101.803 70 102.955C67.3182 104.091 64.0833 104.659 60.2955 104.659C56.5379 104.659 53.2652 104.083 50.4773 102.932C47.7045 101.78 45.5379 100.076 43.9773 97.8182C42.4318 95.5455 41.6212 92.7348 41.5455 89.3864H51.0682C51.1742 90.947 51.6212 92.25 52.4091 93.2955C53.2121 94.3258 54.2803 95.1061 55.6136 95.6364C56.9621 96.1515 58.4848 96.4091 60.1818 96.4091C61.8485 96.4091 63.2955 96.1667 64.5227 95.6818C65.7652 95.197 66.7273 94.5227 67.4091 93.6591C68.0909 92.7955 68.4318 91.803 68.4318 90.6818C68.4318 89.6364 68.1212 88.7576 67.5 88.0455C66.8939 87.3333 66 86.7273 64.8182 86.2273C63.6515 85.7273 62.2197 85.2727 60.5227 84.8636L55.4545 83.5909C51.5303 82.6364 48.4318 81.1439 46.1591 79.1136C43.8864 77.0833 42.7576 74.3485 42.7727 70.9091C42.7576 68.0909 43.5076 65.6288 45.0227 63.5227C46.553 61.4167 48.6515 59.7727 51.3182 58.5909C53.9848 57.4091 57.0152 56.8182 60.4091 56.8182C63.8636 56.8182 66.8788 57.4091 69.4545 58.5909C72.0455 59.7727 74.0606 61.4167 75.5 63.5227C76.9394 65.6288 77.6818 68.0682 77.7273 70.8409H68.2955ZM94.483 83.8182V104H84.8011V69.0909H94.0284V75.25H94.4375C95.2102 73.2197 96.5057 71.6136 98.3239 70.4318C100.142 69.2348 102.347 68.6364 104.938 68.6364C107.362 68.6364 109.475 69.1667 111.278 70.2273C113.081 71.2879 114.483 72.803 115.483 74.7727C116.483 76.7273 116.983 79.0606 116.983 81.7727V104H107.301V83.5C107.316 81.3636 106.771 79.697 105.665 78.5C104.559 77.2879 103.036 76.6818 101.097 76.6818C99.7936 76.6818 98.642 76.9621 97.642 77.5227C96.6572 78.0833 95.8845 78.9015 95.3239 79.9773C94.7784 81.0379 94.4981 82.3182 94.483 83.8182Z" fill="white"/>
</g>
<defs>
<filter id="filter0_d_3_16" x="37.5455" y="56.8182" width="83.4375" height="55.8409" filterUnits="userSpaceOnUse" color-interpolation-filters="sRGB">
<feFlood flood-opacity="0" result="BackgroundImageFix"/>
<feColorMatrix in="SourceAlpha" type="matrix" values="0 0 0 0 0 0 0 0 0 0 0 0 0 0 0 0 0 0 127 0" result="hardAlpha"/>
<feOffset dy="4"/>
<feGaussianBlur stdDeviation="2"/>
<feComposite in2="hardAlpha" operator="out"/>
<feColorMatrix type="matrix" values="0 0 0 0 0 0 0 0 0 0 0 0 0 0 0 0 0 0 0.25 0"/>
<feBlend mode="normal" in2="BackgroundImageFix" result="effect1_dropShadow_3_16"/>
<feBlend mode="normal" in="SourceGraphic" in2="effect1_dropShadow_3_16" result="shape"/>
</filter>
<linearGradient id="paint0_linear_3_16" x1="159.5" y1="80" x2="-12" y2="80" gradientUnits="userSpaceOnUse">
<stop stop-color="#356EFE"/>
<stop offset="1" stop-color="#002D68"/>
</linearGradient>
</defs>
</svg>
