<svg width="64" height="46" viewBox="0 0 64 46" fill="none" xmlns="http://www.w3.org/2000/svg">
<path d="M0 31.125C0 39.1992 6.45 45.75 14.4 45.75H51.2C58.27 45.75 64 39.9305 64 32.75C64 26.4633 59.6 21.2125 53.76 20.0141C54.17 18.9273 54.4 17.7391 54.4 16.5C54.4 11.1172 50.1 6.75 44.8 6.75C42.83 6.75 40.99 7.35937 39.47 8.39531C36.7 3.52031 31.53 0.25 25.6 0.25C16.76 0.25 9.6 7.52187 9.6 16.5C9.6 16.7742 9.61 17.0484 9.62 17.3227C4.02 19.3234 0 24.7469 0 31.125Z" fill="#089981"/>
<path d="M21.8438 30.3711H24.2852C24.207 31.3021 23.9466 32.1322 23.5039 32.8613C23.0612 33.584 22.4395 34.1536 21.6387 34.5703C20.8379 34.987 19.8646 35.1953 18.7188 35.1953C17.8398 35.1953 17.0488 35.0391 16.3457 34.7266C15.6426 34.4076 15.0404 33.9583 14.5391 33.3789C14.0378 32.793 13.6536 32.0866 13.3867 31.2598C13.1263 30.4329 12.9961 29.5085 12.9961 28.4863V27.3047C12.9961 26.2826 13.1296 25.3581 13.3965 24.5312C13.6699 23.7044 14.0605 22.998 14.5684 22.4121C15.0762 21.8197 15.6849 21.3672 16.3945 21.0547C17.1107 20.7422 17.9147 20.5859 18.8066 20.5859C19.9395 20.5859 20.8965 20.7943 21.6777 21.2109C22.459 21.6276 23.0645 22.2038 23.4941 22.9395C23.9303 23.6751 24.1973 24.5182 24.2949 25.4688H21.8535C21.7884 24.8568 21.6452 24.3327 21.4238 23.8965C21.209 23.4603 20.89 23.1283 20.4668 22.9004C20.0436 22.666 19.4902 22.5488 18.8066 22.5488C18.2467 22.5488 17.7585 22.653 17.3418 22.8613C16.9251 23.0697 16.5768 23.3757 16.2969 23.7793C16.0169 24.1829 15.8053 24.681 15.6621 25.2734C15.5254 25.8594 15.457 26.5299 15.457 27.2852V28.4863C15.457 29.2025 15.5189 29.8535 15.6426 30.4395C15.7728 31.0189 15.9681 31.5169 16.2285 31.9336C16.4954 32.3503 16.834 32.6725 17.2441 32.9004C17.6543 33.1283 18.1458 33.2422 18.7188 33.2422C19.4154 33.2422 19.9785 33.1315 20.4082 32.9102C20.8444 32.6888 21.1732 32.3665 21.3945 31.9434C21.6224 31.5137 21.7721 30.9896 21.8438 30.3711Z" fill="white"/>
<path d="M37.8496 27.5V28.2812C37.8496 29.3555 37.7096 30.319 37.4297 31.1719C37.1497 32.0247 36.7493 32.7507 36.2285 33.3496C35.7142 33.9486 35.0957 34.4076 34.373 34.7266C33.6504 35.0391 32.8496 35.1953 31.9707 35.1953C31.0983 35.1953 30.3008 35.0391 29.5781 34.7266C28.862 34.4076 28.2402 33.9486 27.7129 33.3496C27.1855 32.7507 26.7754 32.0247 26.4824 31.1719C26.196 30.319 26.0527 29.3555 26.0527 28.2812V27.5C26.0527 26.4258 26.196 25.4655 26.4824 24.6191C26.7689 23.7663 27.1725 23.0404 27.6934 22.4414C28.2207 21.8359 28.8424 21.377 29.5586 21.0645C30.2812 20.7454 31.0788 20.5859 31.9512 20.5859C32.8301 20.5859 33.6309 20.7454 34.3535 21.0645C35.0762 21.377 35.6979 21.8359 36.2188 22.4414C36.7396 23.0404 37.14 23.7663 37.4199 24.6191C37.7064 25.4655 37.8496 26.4258 37.8496 27.5ZM35.3984 28.2812V27.4805C35.3984 26.6862 35.3203 25.9863 35.1641 25.3809C35.0143 24.7689 34.7897 24.2578 34.4902 23.8477C34.1973 23.431 33.8359 23.1185 33.4062 22.9102C32.9766 22.6953 32.4915 22.5879 31.9512 22.5879C31.4108 22.5879 30.929 22.6953 30.5059 22.9102C30.0827 23.1185 29.7214 23.431 29.4219 23.8477C29.1289 24.2578 28.9043 24.7689 28.748 25.3809C28.5918 25.9863 28.5137 26.6862 28.5137 27.4805V28.2812C28.5137 29.0755 28.5918 29.7786 28.748 30.3906C28.9043 31.0026 29.1322 31.5202 29.4316 31.9434C29.7376 32.36 30.1022 32.6758 30.5254 32.8906C30.9486 33.099 31.4303 33.2031 31.9707 33.2031C32.5176 33.2031 33.0026 33.099 33.4258 32.8906C33.849 32.6758 34.207 32.36 34.5 31.9434C34.793 31.5202 35.0143 31.0026 35.1641 30.3906C35.3203 29.7786 35.3984 29.0755 35.3984 28.2812Z" fill="white"/>
<path d="M49.4609 33.125V35H39.9297V33.3887L44.5586 28.3398C45.0664 27.7669 45.4668 27.2721 45.7598 26.8555C46.0527 26.4388 46.2578 26.0645 46.375 25.7324C46.4987 25.3939 46.5605 25.0651 46.5605 24.7461C46.5605 24.2969 46.4759 23.903 46.3066 23.5645C46.1439 23.2194 45.903 22.9492 45.584 22.7539C45.265 22.5521 44.8776 22.4512 44.4219 22.4512C43.8945 22.4512 43.4518 22.5651 43.0938 22.793C42.7357 23.0208 42.4655 23.3366 42.2832 23.7402C42.1009 24.1374 42.0098 24.5931 42.0098 25.1074H39.6562C39.6562 24.2806 39.8451 23.5254 40.2227 22.8418C40.6003 22.1517 41.1471 21.6048 41.8633 21.2012C42.5794 20.791 43.4421 20.5859 44.4512 20.5859C45.4017 20.5859 46.209 20.7454 46.873 21.0645C47.5371 21.3835 48.0417 21.8359 48.3867 22.4219C48.7383 23.0078 48.9141 23.7012 48.9141 24.502C48.9141 24.9447 48.8424 25.3841 48.6992 25.8203C48.556 26.2565 48.3509 26.6927 48.084 27.1289C47.8236 27.5586 47.5143 27.9915 47.1562 28.4277C46.7982 28.8574 46.4043 29.2936 45.9746 29.7363L42.8984 33.125H49.4609Z" fill="white"/>
</svg>
