<svg width="29" height="29" viewBox="0 0 29 29" fill="none" xmlns="http://www.w3.org/2000/svg">
<path d="M15.5101 0.0331791C11.3232 -0.249589 7.20391 1.28509 4.23985 4.25295C1.27699 7.2196 -0.255187 11.3306 0.0348155 15.531C0.567695 23.2093 7.34892 29 15.8085 29H22.9583C26.2897 29 29 26.2895 29 22.9579V14.9099C29 7.08184 23.0755 0.546754 15.5101 0.0331791ZM15.7082 20.5411V21.7495C15.7082 22.4166 15.1681 22.9579 14.4999 22.9579C13.8317 22.9579 13.2915 22.4166 13.2915 21.7495V20.5411H12.9677C11.6784 20.5411 10.4749 19.8475 9.82843 18.7297C9.49372 18.1521 9.69189 17.4138 10.2683 17.079C10.8471 16.7431 11.5854 16.9413 11.9189 17.5201C12.1352 17.8923 12.5363 18.1243 12.9665 18.1243H15.707C16.374 18.1243 16.9154 17.5817 16.9154 16.9159C16.9154 16.4591 16.5879 16.0724 16.1372 15.9975L12.4626 15.3848C10.841 15.1154 9.66531 13.7257 9.66531 12.0822C9.66531 10.0835 11.2917 8.45701 13.2903 8.45701V7.2486C13.2903 6.58156 13.8305 6.04019 14.4987 6.04019C15.1669 6.04019 15.707 6.58156 15.707 7.2486V8.45701H16.0309C17.3202 8.45701 18.5237 9.15185 19.1701 10.2696C19.5048 10.8472 19.3067 11.5856 18.7303 11.9203C18.1503 12.255 17.412 12.0569 17.0797 11.4792C16.8634 11.1058 16.4622 10.875 16.0321 10.875H13.2915C12.6245 10.875 12.0832 11.4176 12.0832 12.0835C12.0832 12.5402 12.4107 12.9269 12.8614 13.0018L16.5359 13.6145C18.1575 13.884 19.3333 15.2737 19.3333 16.9171C19.3333 18.9158 17.7068 20.5411 15.7082 20.5411Z" fill="#4E5C67"/>
</svg>
