<svg width="36" height="25" viewBox="0 0 36 25" fill="none" xmlns="http://www.w3.org/2000/svg">
<path d="M18.4608 8.53998C16.7287 8.78481 15.2159 10.4109 15.2013 10.4255C15.1795 10.4481 15.155 10.4677 15.1282 10.484C12.7749 12.0114 11.4485 10.8494 11.3937 10.78C9.88815 9.42428 11.2694 7.1514 11.3279 7.0564C11.9446 6.03141 12.6913 5.09057 13.5496 4.25732H7.1585L4.38501 13.4073C4.4148 13.4238 4.44191 13.4448 4.4654 13.4694C8.76998 18.3367 14.4851 22.6559 16.7397 24.2857C16.9743 24.4592 17.2661 24.5371 17.556 24.5036C17.8459 24.4702 18.1123 24.3279 18.3012 24.1055C18.4902 23.8831 18.5876 23.5972 18.5738 23.3058C18.56 23.0143 18.436 22.7389 18.2269 22.5353L15.1245 19.433C15.0565 19.3645 15.0183 19.2719 15.0183 19.1754C15.0183 19.0788 15.0565 18.9862 15.1245 18.9177C15.1585 18.8835 15.1989 18.8563 15.2434 18.8378C15.288 18.8192 15.3357 18.8096 15.384 18.8096C15.4322 18.8096 15.48 18.8192 15.5245 18.8378C15.569 18.8563 15.6094 18.8835 15.6434 18.9177L17.2951 20.5694L18.7567 22.0311L19.4876 22.7802C19.7497 23.0355 20.1015 23.178 20.4675 23.1771C20.8334 23.1762 21.1845 23.032 21.4454 22.7754C21.7064 22.5188 21.8564 22.1702 21.8633 21.8043C21.8703 21.4383 21.7337 21.0843 21.4827 20.8179L18.6362 17.8471L18.0953 17.288C18.0611 17.254 18.0339 17.2136 18.0154 17.1691C17.9968 17.1245 17.9873 17.0768 17.9873 17.0285C17.9873 16.9803 17.9968 16.9325 18.0154 16.888C18.0339 16.8435 18.0611 16.8031 18.0953 16.7691C18.1293 16.7349 18.1697 16.7077 18.2143 16.6891C18.2588 16.6706 18.3066 16.661 18.3548 16.661C18.403 16.661 18.4508 16.6706 18.4953 16.6891C18.5399 16.7077 18.5803 16.7349 18.6142 16.7691L22.769 21.081C22.9702 21.2801 23.2249 21.4165 23.5021 21.4737C23.7793 21.5308 24.0672 21.5062 24.3307 21.4029C24.5942 21.2996 24.8221 21.122 24.9866 20.8916C25.1511 20.6613 25.2452 20.3881 25.2575 20.1053C25.2635 19.9061 25.2276 19.7078 25.1521 19.5234C25.0765 19.3389 24.963 19.1724 24.819 19.0347L22.3268 16.6229L20.5911 14.9384C20.5525 14.9061 20.5209 14.8663 20.4984 14.8213C20.4759 14.7763 20.4629 14.7271 20.4603 14.6768C20.4577 14.6266 20.4655 14.5763 20.4832 14.5292C20.5009 14.4821 20.5281 14.4392 20.5632 14.4031C20.5983 14.367 20.6404 14.3386 20.687 14.3195C20.7336 14.3005 20.7836 14.2913 20.8339 14.2925C20.8842 14.2937 20.9337 14.3053 20.9794 14.3265C21.025 14.3477 21.0657 14.3781 21.0991 14.4158L26.0321 19.1918C26.1615 19.3247 26.3165 19.43 26.4876 19.5014C26.6588 19.5728 26.8426 19.6088 27.0281 19.6073C27.2135 19.6057 27.3968 19.5666 27.5667 19.4924C27.7367 19.4181 27.8898 19.3102 28.017 19.1752C28.1441 19.0402 28.2426 18.8808 28.3065 18.7067C28.3703 18.5326 28.3983 18.3473 28.3887 18.1621C28.3791 17.9769 28.3321 17.7955 28.2505 17.629C28.1689 17.4624 28.0545 17.3141 27.914 17.193L18.4608 8.53998Z" fill="#4E5C67"/>
<path d="M6.04395 2.11604C4.14693 1.26318 2.07841 0.860477 0 0.939406V15.2709H2.23268C2.47097 15.2715 2.70295 15.1944 2.8935 15.0513C3.08406 14.9083 3.2228 14.707 3.28873 14.478L6.64323 3.43153C6.7199 3.17687 6.70139 2.90303 6.59114 2.66101C6.48088 2.41899 6.28641 2.22531 6.04395 2.11604Z" fill="#4E5C67"/>
<path d="M19.6447 2.82521C18.8567 2.50082 17.9761 2.48128 17.1745 2.77039C15.7749 3.28197 13.7323 4.50976 11.9381 7.44038C11.9381 7.46231 10.8163 9.26746 11.8723 10.2395C11.9089 10.2723 12.8516 11.0616 14.6787 9.89597C14.9418 9.62191 16.5898 7.97023 18.5375 7.79118C18.5878 7.78696 18.6385 7.79322 18.6863 7.80958C18.7341 7.82593 18.778 7.85202 18.8152 7.88619L28.3927 16.6561C28.4365 16.6963 28.4767 16.7402 28.5169 16.784C29.6132 16.6159 30.344 15.6147 30.5559 15.2493L27.0845 5.78871L19.6447 2.82521Z" fill="#4E5C67"/>
<path d="M34.3489 2.68249C32.2646 2.66864 30.1973 3.05827 28.2611 3.82989C28.0007 3.94148 27.7936 4.14953 27.6833 4.41044C27.5729 4.67135 27.5679 4.96486 27.6691 5.22942L31.7362 16.2978C31.8156 16.5113 31.9581 16.6956 32.1448 16.8262C32.3315 16.9567 32.5535 17.0273 32.7813 17.0286H35.0797V2.70076C34.897 2.68979 34.6449 2.68249 34.3489 2.68249Z" fill="#4E5C67"/>
</svg>
