<svg width="31" height="27" viewBox="0 0 31 27" fill="none" xmlns="http://www.w3.org/2000/svg">
<path d="M14.3303 0H20.0625V3.82143H14.3303V0Z" fill="#4E5C67"/>
<path d="M27.7053 0H21.9732V4.77678C21.9732 5.35 21.5911 5.73214 21.0178 5.73214H13.375C12.8018 5.73214 12.4196 5.35 12.4196 4.77678V0H6.6875C5.06339 0 3.82143 1.24196 3.82143 2.86607V8.59821H2.86607C2.29286 8.59821 1.91071 8.98035 1.91071 9.55357C1.91071 10.1268 2.29286 10.5089 2.86607 10.5089H3.82143H6.6875C7.26071 10.5089 7.64285 10.8911 7.64285 11.4643C7.64285 12.0375 7.26071 12.4196 6.6875 12.4196H3.82143H0.955357C0.382143 12.4196 0 12.8018 0 13.375C0 13.9482 0.382143 14.3303 0.955357 14.3303H3.82143H4.77678C5.35 14.3303 5.73214 14.7125 5.73214 15.2857C5.73214 15.8589 5.35 16.2411 4.77678 16.2411H3.82143H2.86607C2.29286 16.2411 1.91071 16.6232 1.91071 17.1964C1.91071 17.7696 2.29286 18.1518 2.86607 18.1518H3.82143V23.8839C3.82143 25.508 5.06339 26.75 6.6875 26.75H27.7053C29.3294 26.75 30.5714 25.508 30.5714 23.8839V2.86607C30.5714 1.24196 29.3294 0 27.7053 0ZM21.9732 21.9732H12.4196C11.8464 21.9732 11.4643 21.5911 11.4643 21.0178C11.4643 20.4446 11.8464 20.0625 12.4196 20.0625H21.9732C22.5464 20.0625 22.9286 20.4446 22.9286 21.0178C22.9286 21.5911 22.5464 21.9732 21.9732 21.9732ZM23.5973 14.1393C23.4062 14.3303 23.2152 14.4259 22.9286 14.4259C22.642 14.4259 22.4509 14.3303 22.2598 14.1393L21.9732 13.8527V18.1518C21.9732 18.725 21.5911 19.1071 21.0178 19.1071C20.4446 19.1071 20.0625 18.725 20.0625 18.1518V13.8527L19.7759 14.1393C19.3937 14.5214 18.8205 14.5214 18.4384 14.1393C18.0562 13.7571 18.0562 13.1839 18.4384 12.8018L20.3491 10.7955C20.5402 10.6045 20.7312 10.5089 21.0178 10.5089C21.3045 10.5089 21.4955 10.6045 21.6866 10.7955L23.5973 12.8018C23.9795 13.1839 23.9795 13.8527 23.5973 14.1393Z" fill="#4E5C67"/>
</svg>
